<svg fill="none" viewBox="0 0 1360 1370">
  <g fill="#fff" filter="url(#a)">
    <path d="M1360 147v1076c0 81-65 147-146 147H146c-80 0-146-66-146-147V147C0 66 65 0 146 0h1068c80 0 146 66 146 147Zm-120 248s-262-243-285-330c-13-48-192 13-240 0C629 41 650 466 650 466s-110 25-195 49C407 528 333 482 320 530c-23 87-93 156-93 156S103 733 126 820c13 48 47 402 95 415 86 23 430 90 430 90s144-191 230-215c-66-256 196-715 334-495a1180 1180 0 00 26-220Z"/>
    <path d="M604 35v383a511 511 0 00-486 828c67 80 158 66 259 94a511 511 0 00 308-13c98-35 184-28 244-114a510 510 0 00 93-293V640c80 34 166 52 253 51h75V275h-75a255 255 0 01-253-260v20H604Zm150 54h125a403 403 0 00 322 329v120a510 510 0 01-212-84l-116-77V920A361 361 0 11 530 559v120a243 243 0 10 223 240V90ZM417 920a93 93 0 11 186 0 93 93 0 01-186 0Z"/>
  </g>
  <defs>
    <filter id="a" width="1360" height="1375" x="0" y="0" color-interpolation-filters="sRGB" filterUnits="userSpaceOnUse">
      <feFlood flood-opacity="0" result="BackgroundImageFix"/>
      <feBlend in="SourceGraphic" in2="BackgroundImageFix" mode="normal" result="shape"/>
      <feColorMatrix in="SourceAlpha" result="hardAlpha" type="matrix" values="0 0 0 0 0 0 0 0 0 0 0 0 0 0 0 0 0 0 127 0"/>
      <feOffset dy=".5"/>
      <feGaussianBlur stdDeviation="2"/>
      <feComposite in2="hardAlpha" k2="-1" k3="1" operator="arithmetic"/>
      <feColorMatrix type="matrix" values="0 0 0 0 0 0 0 0 0 0 0 0 0 0 0 0 0 0 0.25 0"/>
      <feBlend in2="shape" mode="normal" result="effect1_innerShadow_531_46"/>
    </filter>
  </defs>
</svg>
