<svg xmlns="http://www.w3.org/2000/svg" fill="none" viewBox="0 0 140 140"><title>Instagram Icon</title>
  <desc>Vector illustration of the Instagram logo, a popular social media platform for sharing photos and videos.</desc><g clip-path="url(#a)" filter="url(#b)"><path d="M127 0H13C6 0 0 6 0 13v114c0 7 6 13 13 13h114c7 0 13-6 13-13V13c0-7-6-13-13-13ZM96 22c0-3 2-4 5-4h17c3 0 5 1 5 4v17c0 3-2 5-5 5h-17a4 4 0 0 1-5-5V22ZM70 44a26 26 0 0 1 0 52 26 26 0 0 1 0-52Zm53 74c0 3-2 5-5 5H22a4 4 0 0 1-4-5V61h9a44 44 0 1 0 86 0h10v57Z" fill="#fff"/></g><defs><clipPath id="a"><path d="M0 0h140v140H0z" fill="#fff"/></clipPath><filter id="b" width="140" height="141" x="0" y="0" color-interpolation-filters="sRGB" filterUnits="userSpaceOnUse"><feFlood flood-opacity="0" result="BackgroundImageFix"/><feBlend in="SourceGraphic" in2="BackgroundImageFix" mode="normal" result="shape"/><feColorMatrix in="SourceAlpha" result="hardAlpha" type="matrix" values="0 0 0 0 0 0 0 0 0 0 0 0 0 0 0 0 0 0 127 0"/><feOffset dy="1"/><feGaussianBlur stdDeviation="2"/><feComposite in2="hardAlpha" k2="-1" k3="1" operator="arithmetic"/><feColorMatrix type="matrix" values="0 0 0 0 0 0 0 0 0 0 0 0 0 0 0 0 0 0 0.25 0"/><feBlend in2="shape" mode="normal" result="effect1_innerShadow_523_13"/></filter></defs></svg>