<svg width="144" height="145" viewBox="0 0 144 145" fill="none" xmlns="http://www.w3.org/2000/svg">
<g filter="url(#filter0_d_531_46)">
<path d="M140 14.6786V122.321C140 130.425 133.473 137 125.429 137H18.5714C10.5268 137 4 130.425 4 122.321V14.6786C4 6.57478 10.5268 0 18.5714 0H125.429C133.473 0 140 6.57478 140 14.6786ZM128 39.5C128 39.5 101.807 15.246 99.5 6.5C98.225 1.6683 80.2661 7.78437 75.5 6.5C66.9089 4.14531 69 46.6199 69 46.6199C69 46.6199 58.0911 49.1453 49.5 51.5C44.7339 52.7844 37.275 48.1683 36 53C33.6929 61.7154 26.75 68.5917 26.75 68.5917C26.75 68.5917 14.1929 73.254 16.5 82C17.775 86.8317 21.2339 122.216 26 123.5C34.5911 125.824 69 132.5 69 132.5C69 132.5 83.4089 113.355 92 111C85.3759 85.4206 111.6 39.548 125.429 61.5C127.736 52.7846 128 39.5 128 39.5Z" fill="white"/>
<path d="M64.4144 3.5V41.7865C54.0866 39.8718 43.419 41.1835 33.8644 45.5428C24.3097 49.9022 16.3324 57.0974 11.0189 66.1485C5.70537 75.1997 3.31385 85.6669 4.17004 96.1246C5.02623 106.582 9.08851 116.522 15.8037 124.591C22.5188 132.659 31.5604 131.249 41.6972 134C51.834 136.751 62.5732 136.314 72.4523 132.748C82.3314 129.183 90.8702 129.877 96.9059 121.29C102.942 112.702 106.181 102.465 106.182 91.9723V64.1377C114.2 67.5435 122.829 69.2825 131.541 69.2486H139V27.5265H131.541C117.348 27.5265 106.182 16.0753 106.182 1.4502V3.5H64.4144ZM79.3315 8.90057H91.9216C94.8602 25.4404 107.435 38.6723 124.083 41.7567V53.8115C116.341 52.679 109.352 49.7733 102.878 45.4447L91.2652 37.6814V91.9723C91.2645 99.1982 89.0951 106.258 85.037 112.24C80.9789 118.222 75.2186 122.851 68.5001 125.529C61.7815 128.208 54.4134 128.812 47.3472 127.266C40.281 125.719 33.8415 122.091 28.8602 116.851C23.8789 111.612 20.5847 105 19.403 97.8715C18.2214 90.7426 19.2066 83.4236 22.2314 76.8597C25.2561 70.2958 30.1816 64.7885 36.3715 61.0492C42.5615 57.3098 49.7316 55.5102 56.9558 55.8827V67.8331C52.0964 67.4586 47.2367 68.556 43.0111 70.9823C38.7856 73.4085 35.3903 77.0508 33.2685 81.4338C31.1467 85.8167 30.3968 90.7369 31.1168 95.552C31.8368 100.367 33.9932 104.854 37.3046 108.426C40.616 111.998 44.9285 114.491 49.6794 115.578C54.4303 116.665 59.3989 116.296 63.9367 114.519C68.4745 112.742 72.3708 109.641 75.1171 105.619C77.8634 101.597 79.3321 96.8408 79.3315 91.9723V8.90057ZM45.768 91.9723C45.768 89.5023 46.7502 87.1335 48.4987 85.387C50.2471 83.6405 52.6185 82.6593 55.0912 82.6593C57.5638 82.6593 59.9352 83.6405 61.6837 85.387C63.4321 87.1335 64.4144 89.5023 64.4144 91.9723C64.4144 94.4422 63.4321 96.811 61.6837 98.5576C59.9352 100.304 57.5638 101.285 55.0912 101.285C52.6185 101.285 50.2471 100.304 48.4987 98.5576C46.7502 96.811 45.768 94.4422 45.768 91.9723Z" fill="white"/>
</g>
<defs>
<filter id="filter0_d_531_46" x="0" y="0" width="144" height="145" filterUnits="userSpaceOnUse" color-interpolation-filters="sRGB">
<feFlood flood-opacity="0" result="BackgroundImageFix"/>
<feColorMatrix in="SourceAlpha" type="matrix" values="0 0 0 0 0 0 0 0 0 0 0 0 0 0 0 0 0 0 127 0" result="hardAlpha"/>
<feOffset dy="4"/>
<feGaussianBlur stdDeviation="2"/>
<feComposite in2="hardAlpha" operator="out"/>
<feColorMatrix type="matrix" values="0 0 0 0 0 0 0 0 0 0 0 0 0 0 0 0 0 0 0.25 0"/>
<feBlend mode="normal" in2="BackgroundImageFix" result="effect1_dropShadow_531_46"/>
<feBlend mode="normal" in="SourceGraphic" in2="effect1_dropShadow_531_46" result="shape"/>
</filter>
</defs>
</svg>
