<svg width="148" height="148" viewBox="0 0 148 148" fill="none" xmlns="http://www.w3.org/2000/svg">
<g clip-path="url(#clip0_523_13)" filter="url(#filter0_d_523_13)">
<path d="M130.875 0H17.125C9.90625 0 4 5.90625 4 13.125V126.875C4 134.094 9.90625 140 17.125 140H130.875C138.094 140 144 134.094 144 126.875V13.125C144 5.90625 138.094 0 130.875 0ZM100.25 21.875C100.25 19.4687 102.219 17.5 104.625 17.5H122.125C124.531 17.5 126.5 19.4687 126.5 21.875V39.375C126.5 41.7813 124.531 43.75 122.125 43.75H104.625C103.465 43.7477 102.354 43.286 101.534 42.466C100.714 41.6461 100.252 40.5346 100.25 39.375V21.875ZM74 43.75C80.8446 43.9267 87.3495 46.7699 92.128 51.6735C96.9066 56.577 99.5809 63.1531 99.5809 70C99.5809 76.8469 96.9066 83.423 92.128 88.3265C87.3495 93.2301 80.8446 96.0733 74 96.25C67.1554 96.0733 60.6505 93.2301 55.872 88.3265C51.0934 83.423 48.4191 76.8469 48.4191 70C48.4191 63.1531 51.0934 56.577 55.872 51.6735C60.6505 46.7699 67.1554 43.9267 74 43.75ZM126.5 118.125C126.5 120.531 124.531 122.5 122.125 122.5H25.875C24.7154 122.498 23.6039 122.036 22.784 121.216C21.964 120.396 21.5023 119.285 21.5 118.125V61.25H31.125C29.8257 67.6074 29.9571 74.1742 31.5096 80.4745C33.0621 86.7748 35.997 92.6508 40.1013 97.6766C44.2057 102.702 49.3769 106.752 55.24 109.532C61.103 112.312 67.5112 113.753 74 113.75C80.4888 113.753 86.897 112.312 92.76 109.532C98.6231 106.752 103.794 102.702 107.899 97.6766C112.003 92.6508 114.938 86.7748 116.49 80.4745C118.043 74.1742 118.174 67.6074 116.875 61.25H126.5V118.125Z" fill="white"/>
</g>
<defs>
<filter id="filter0_d_523_13" x="0" y="0" width="148" height="148" filterUnits="userSpaceOnUse" color-interpolation-filters="sRGB">
<feFlood flood-opacity="0" result="BackgroundImageFix"/>
<feColorMatrix in="SourceAlpha" type="matrix" values="0 0 0 0 0 0 0 0 0 0 0 0 0 0 0 0 0 0 127 0" result="hardAlpha"/>
<feOffset dy="4"/>
<feGaussianBlur stdDeviation="2"/>
<feComposite in2="hardAlpha" operator="out"/>
<feColorMatrix type="matrix" values="0 0 0 0 0 0 0 0 0 0 0 0 0 0 0 0 0 0 0.25 0"/>
<feBlend mode="normal" in2="BackgroundImageFix" result="effect1_dropShadow_523_13"/>
<feBlend mode="normal" in="SourceGraphic" in2="effect1_dropShadow_523_13" result="shape"/>
</filter>
<clipPath id="clip0_523_13">
<rect width="140" height="140" fill="white" transform="translate(4)"/>
</clipPath>
</defs>
</svg>
