<svg xmlns="http://www.w3.org/2000/svg" fill="none" viewBox="0 0 140 140"><title>Pinterest Icon</title>
  <desc>Vector illustration of the Pinterest logo, a visual discovery and bookmarking platform. Explore and save creative ideas on our Pinterest boards for inspiration.</desc><g filter="url(#a)"><path d="M140 15v110c0 8-7 15-15 15H48c3-5 7-12 9-19l5-18c2 5 9 9 17 9 23 0 40-21 40-48 0-25-21-44-47-44-33 0-51 22-51 46 0 12 6 26 16 30 1 1 2 1 2-1l2-9v-2c-3-4-6-11-6-17 0-17 13-34 35-34 19 0 32 13 32 32 0 20-11 35-24 35-8 0-14-6-12-14 2-9 7-19 7-26 0-16-24-14-24 8 0 7 2 12 2 12-10 41-11 42-9 60h1-28c-8 0-15-7-15-15V15C0 7 7 0 15 0h110c8 0 15 7 15 15Z" fill="#fff"/></g><defs><filter id="a" width="140" height="141" x="0" y="0" color-interpolation-filters="sRGB" filterUnits="userSpaceOnUse"><feFlood flood-opacity="0" result="BackgroundImageFix"/><feBlend in="SourceGraphic" in2="BackgroundImageFix" mode="normal" result="shape"/><feColorMatrix in="SourceAlpha" result="hardAlpha" type="matrix" values="0 0 0 0 0 0 0 0 0 0 0 0 0 0 0 0 0 0 127 0"/><feOffset dy="1"/><feGaussianBlur stdDeviation="2"/><feComposite in2="hardAlpha" k2="-1" k3="1" operator="arithmetic"/><feColorMatrix type="matrix" values="0 0 0 0 0 0 0 0 0 0 0 0 0 0 0 0 0 0 0.25 0"/><feBlend in2="shape" mode="normal" result="effect1_innerShadow_523_16"/></filter></defs></svg>