<svg xmlns="http://www.w3.org/2000/svg" fill="none" viewBox="0 0 1360 1370"> <title>YouTube Icon</title>
  <desc>Vector illustration of the YouTube logo, the popular video-sharing platform. Subscribe for engaging content, tutorials, and updates from our YouTube channel.</desc><g filter="url(#a)"><path d="m570 520 290 170-290 160V520Zm790-370v1070c0 80-70 150-150 150H150c-80 0-150-70-150-150V150C0 70 70 0 150 0h1060c80 0 150 70 150 150Zm-230 540s0-140-20-220c-10-50-50-90-100-100-80-30-330-30-330-30s-250 0-330 30c-50 10-90 50-100 100-20 80-20 220-20 220s0 130 20 220c10 40 50 80 100 90 80 30 330 30 330 30s250 0 330-30c50-10 90-50 100-90 20-90 20-220 20-220Z" fill="#fff"/></g><defs><filter id="a" width="1360" height="1380" x="0" y="0" color-interpolation-filters="sRGB" filterUnits="userSpaceOnUse"><feFlood flood-opacity="0" result="BackgroundImageFix"/><feBlend in="SourceGraphic" in2="BackgroundImageFix" mode="normal" result="shape"/><feColorMatrix in="SourceAlpha" result="hardAlpha" type="matrix" values="0 0 0 0 0 0 0 0 0 0 0 0 0 0 0 0 0 0 127 0"/><feOffset dy="1"/><feGaussianBlur stdDeviation="2"/><feComposite in2="hardAlpha" k2="-1" k3="1" operator="arithmetic"/><feColorMatrix type="matrix" values="0 0 0 0 0 0 0 0 0 0 0 0 0 0 0 0 0 0 0.25 0"/><feBlend in2="shape" mode="normal" result="effect1_innerShadow_525_26"/></filter></defs></svg>